<?xml version="1.0" encoding="UTF-8" standalone="no"?>
<svg
   xmlns:dc="http://purl.org/dc/elements/1.1/"
   xmlns:cc="http://creativecommons.org/ns#"
   xmlns:rdf="http://www.w3.org/1999/02/22-rdf-syntax-ns#"
   xmlns:svg="http://www.w3.org/2000/svg"
   xmlns="http://www.w3.org/2000/svg"
   viewBox="0 0 265.25333 138.81332"
   height="138.81332"
   width="265.25333"
   xml:space="preserve"
   id="svg2"
   version="1.1"><metadata
     id="metadata8"><rdf:RDF><cc:Work
         rdf:about=""><dc:format>image/svg+xml</dc:format><dc:type
           rdf:resource="http://purl.org/dc/dcmitype/StillImage" /><dc:title></dc:title></cc:Work></rdf:RDF></metadata><defs
     id="defs6" /><g
     transform="matrix(1.3333333,0,0,-1.3333333,0,138.81333)"
     id="g10"><g
       transform="scale(0.1)"
       id="g12"><path
         id="path14"
         style="fill:#008378;fill-opacity:1;fill-rule:nonzero;stroke:none"
         d="m 1674.78,414.855 c -168.66,0 -305.84,137.2 -305.84,305.86 0,168.625 137.18,305.825 305.84,305.825 168.63,0 305.84,-137.2 305.84,-305.825 0,-168.66 -137.21,-305.86 -305.84,-305.86 z m 0,620.485 c -173.51,0 -314.65,-141.149 -314.65,-314.625 0,-173.504 141.14,-314.649 314.65,-314.649 173.48,0 314.65,141.145 314.65,314.649 0,173.476 -141.17,314.625 -314.65,314.625" /><path
         id="path16"
         style="fill:#008378;fill-opacity:1;fill-rule:nonzero;stroke:none"
         d="m 1881.5,669.523 c -9.77,-8.632 -24.76,-9.343 -30.82,-14.863 -3.17,-2.879 -4.59,-7.402 -1.18,-15.476 1.97,-4.649 3.32,-5.227 -3.38,-7.024 -10.86,-2.898 -12.36,-17.187 -26.21,-14.558 -5.53,1.043 -1.56,-2.512 0.43,-2.696 7.93,-0.754 11.07,1.485 13.85,4.082 2.77,2.606 6.49,7.293 10.74,8.907 4.39,1.66 8.83,1.543 8.9,-1.739 0.06,-2.511 -5.48,-6.484 -7.81,-7.57 2.83,-1.473 11.5,-5.887 4.11,-10.906 -5.77,-3.918 -13.71,1.511 -14.85,2.175 -1.71,0.997 -4.99,0.5 -3.9,-0.828 4.28,-5.234 15.76,-3.859 13.7,-6.632 -10.6,-14.247 -1.96,-22.567 -5.19,-36.883 -3.27,-14.532 -23.13,-22.473 -38.43,-25.235 -52.02,-9.386 -102.63,34.871 -132.3,68.231 2.71,6.328 2.36,14.59 -0.35,11.66 -2.56,-2.773 -2.14,-7.391 -8.32,-8.953 -11.92,-3.02 -17.05,17.695 -20.75,21.316 -14.49,14.199 -20.24,34.25 -11.58,51.797 8.74,17.715 26.89,14.172 34.15,3.449 9.01,-13.332 4.84,-20.918 9.96,-24.894 7.18,-5.594 14.42,-0.606 16.36,-0.067 5.48,1.485 5.06,-12.98 23.76,-12.316 20.1,0.723 17.83,32.004 20.67,34.777 25.8,25.157 12.63,47.606 7.95,52.821 -1.26,1.406 2.86,10.644 4.37,10.988 15.16,3.34 23.71,13.016 28.34,23.262 0,0 25.16,0.418 34.11,18.543 2.4,4.843 9.81,-4.668 26.62,8.535 1.89,1.484 3.68,0.781 4.38,-0.957 10.8,-26.485 15.35,-33.809 14.51,-47.305 -0.6,-9.812 26.2,-64.316 28.16,-69.031 2.17,-5.246 2.51,-10.403 0,-12.61 z M 1762.06,531.469 c -7.65,-26.477 -11.5,-37.051 -0.01,-65.813 1.53,-3.816 2.68,-6.699 -0.67,-6.121 -23.16,3.965 -28.16,7.762 -100.84,1.61 -5.23,-0.45 1.71,10.136 0.85,17.335 6.64,0.86 17.25,3.887 19.5,14.696 2.73,13.125 -6.42,22.754 -5.45,24.629 10.3,20.097 -0.66,42.375 -9.37,79.687 -0.82,3.508 1.2,5.031 2.73,3.371 46.71,-50.547 76.47,-60.586 92.55,-65.363 1.59,-0.477 1.28,-2.293 0.71,-4.031 z m -141.57,-70.031 c -4.79,1.183 -17.99,22.207 -7.24,47.277 1.14,2.656 17.6,1.004 20.37,0.176 2.75,-0.84 -2.27,-20.547 20.36,-29.278 2.31,-0.898 -0.1,-26.457 -33.49,-18.175 z m -33.98,12.597 c -2.49,11.028 -3.49,30.129 1.09,34.387 0.91,0.84 14.62,2.801 14.36,-0.332 -1.04,-13.156 -6.36,-27.852 3.66,-42.492 3.75,-5.477 -15.76,-6.348 -19.11,8.437 z m 80.86,13.008 c -17.81,-6.18 -24.84,14.66 -21.91,19.141 1.77,2.707 13.01,-3.055 21.77,2.589 6.74,4.344 10.47,-18.156 0.14,-21.73 z m -105.19,29.582 c -1.03,5.945 4.7,11.648 4.58,24.629 -0.15,15.918 -19.78,37.742 -33.07,51.766 6.23,0 14.41,1.484 23.58,5.734 19.78,9.16 23.67,30.195 24.24,31.043 0.26,0.402 -4.42,1.328 -11.17,1.418 0.73,0.351 1.46,0.723 2.2,1.113 19.36,10.379 24.41,32.813 23.5,33.309 -0.37,0.195 -5.19,0.957 -11.95,0.781 1.9,0.637 3.85,1.348 5.85,2.148 20.48,8.137 26.2,30.918 25.47,31.661 -0.31,0.324 -4.41,1.144 -10.37,1.3 1.81,0.703 3.66,1.504 5.56,2.45 18.7,9.289 25.17,30.187 24.21,30.878 -0.42,0.305 -4.22,1.036 -9.75,1.114 4.16,0.918 8.71,2.304 13.5,4.394 20.03,8.782 26.5,27.95 25.63,28.762 -0.37,0.34 -3.77,1.277 -8.87,1.699 4,0.899 8.36,2.117 13.02,3.711 19.82,6.778 27.82,25.711 26.64,25.82 -2.67,0.243 -6.36,1.543 -11.13,2.383 5.4,0.34 11.69,1.336 19.57,4.004 21.41,7.227 28.99,20.117 29.37,25.703 0.02,0.36 -2.55,1.493 -6.72,2.403 4.9,0.898 9.83,2.109 13.88,3.757 19.99,8.098 28.31,27.735 28.97,29.356 3.63,1.184 7.55,2.668 11.65,4.523 2.08,0.946 3.99,1.942 5.75,2.977 0.97,-0.742 2.53,-1.863 4.84,-3.348 3.03,-1.945 4.1,-2.402 2.6,-3.672 -68.02,-57.949 -118.98,-131.144 -141.23,-166.711 -0.62,-0.996 -1.8,-0.82 -3.68,-0.691 -23.83,1.57 -37.33,-26.789 -26.67,-53.371 -1.35,-5.398 -12.66,-15.84 -13.51,-16.602 -0.85,-0.75 -3.13,-4.07 0.74,-3.73 5.56,0.508 12.67,9.414 16.07,13.43 1.42,-1.758 6.65,-6.125 4.13,-8.606 -20.24,-19.863 -40.29,-30.555 -41.85,-31.316 -7.58,-3.711 12.64,-6.27 47.11,24.902 2.04,1.836 4.44,-7.187 7.51,-11.055 -5.91,-19.543 8.69,-57.265 6.41,-69.093 -0.4,-2.078 -1.63,-7.918 -8.52,-8.067 -34.16,-0.703 -37.51,0.871 -54.9,-4.258 -8.1,-2.382 -5.97,-7.734 -0.08,-6.14 6.66,1.816 13.65,4.519 50.64,2.207 9.03,-0.567 19.36,1.836 19.43,17.09 0.06,13.836 -10.93,55.105 -7.21,60.75 4.9,-3.692 8.45,-3.836 10.32,-4.168 -0.49,-13.457 21.18,-56.946 11.53,-80.93 -3.58,-8.914 -19.31,-8.25 -46.23,-5.586 -45.8,4.543 -60.65,-5.359 -61.59,0.129 z m -0.86,-33.117 c -1.96,7.89 -1.18,18.769 1.51,21.699 5.2,2.539 14.69,3.508 14.86,0.481 0.25,-4.836 -3.26,-16.309 0.88,-30.618 -0.95,-2.246 -13.91,-1.277 -17.25,8.438 z m -15.65,139.191 c 11.57,5.489 28.82,4.168 27.88,3.406 -0.96,-0.761 -5.5,-17.519 -18.54,-24.07 -13.02,-6.523 -21.63,-4.777 -26.31,-3.879 7.01,7.676 5.54,19.094 16.97,24.543 z m -24.04,-21.594 c -3.89,3.704 -12.33,13.02 -13.14,25.032 -0.04,0.586 -0.06,1.16 -0.06,1.746 -0.04,12.902 5.67,25.605 7.09,27.031 1.43,1.418 16,-9.91 16.21,-26.152 0.2,-14.082 -6.25,-22.176 -10.1,-27.657 z m -10.61,-16.726 c -0.04,-0.031 -0.09,-0.078 -0.13,-0.117 -32.24,37.968 -49.24,85.008 -49.24,136.453 0,117.512 95.6,213.105 213.13,213.105 31,0 60.8,-6.484 88.68,-19.265 -3.67,-1.7 -7.89,-4.211 -12.25,-7.774 -24.53,10.391 -49.23,15.262 -76.43,15.262 -111.03,0 -201.37,-90.32 -201.37,-201.328 0,-48.152 15.03,-90.469 44.45,-125.977 -1.7,-2.586 -4.09,-6.218 -6.84,-10.359 z m -0.43,-74.453 c -64.8,51.609 -103.57,129.531 -103.57,210.789 0,147.617 120.1,267.734 267.76,267.734 43.06,0 86.28,-10.789 124.2,-30.547 0.76,-0.398 0.88,-1.433 0.23,-2 -11.14,-9.738 -26.61,-28.82 -30.51,-34.152 -29.47,13.809 -61.03,20.859 -93.92,20.859 -122.37,0 -221.93,-99.539 -221.93,-221.894 0,-54.598 18.51,-104.414 53.4,-144.375 -2,-4.649 -5.56,-14.813 -5.56,-28.27 0,-11.132 2.06,-23.957 9.9,-38.144 z m 198.76,327.254 c -1.57,1.093 12.78,17.148 24.46,21.593 11.43,4.344 23.77,3.543 24.77,2.977 0.99,-0.566 -7.48,-14.473 -21.27,-20.059 -12.96,-5.253 -26.4,-5.605 -27.96,-4.511 z m -36.32,-29.52 c 0.2,0.86 12.1,17.606 24.34,21.856 11.67,4.023 25.92,1.328 27.46,0.683 1.53,-0.644 -8.26,-15.254 -23.23,-19.746 -13.47,-4.043 -28.79,-3.644 -28.57,-2.793 z m -35.97,-34.121 c -0.79,0.391 10.03,18.828 22.18,23.496 11.61,4.461 23.12,0.43 26.64,0.195 2.85,-0.195 -3.97,-13.554 -19.9,-19.425 -13.28,-4.903 -26.88,-5.274 -28.92,-4.266 z m -32.04,-35.441 c -0.96,0.734 13.2,19.269 25.02,24.738 10.4,4.805 24,3.789 25.13,3.027 1.14,-0.754 -5.54,-16.359 -19.25,-22.363 -13.07,-5.723 -29.94,-6.125 -30.9,-5.402 z m -26.74,-35.809 c 0.57,1.387 10.55,19.316 22.28,24.824 11.63,5.45 25.68,4.285 26.64,3.973 0.97,-0.313 -5.34,-16.16 -18.65,-22.762 -13.16,-6.543 -30.83,-7.422 -30.27,-6.035 z m -20.57,-35.344 c 0.86,4.543 8.99,19.621 21.23,25.071 v 0 c 12.26,5.468 26.45,5.058 28.06,4.394 1.62,-0.664 -5.08,-16.738 -17.44,-22.648 -13.81,-6.602 -19.33,-2.742 -31.85,-6.817 z m 1.04,-10.136 c 13.72,5.968 28.7,5.039 29.34,4.464 0.62,-0.585 -4.39,-17.453 -17.73,-24.621 -13.32,-7.129 -28.36,-7.793 -29.71,-6.093 -0.77,0.949 4.38,20.273 18.1,26.25 z m -21.8,37.617 c 5.26,-2.656 11.62,-10.332 12.21,-24.539 0.6,-14.278 -9.62,-26.348 -13.61,-28.242 -2.78,10.898 -8.06,13.183 -7.96,23.992 0.11,11.828 6.1,24.804 9.36,28.789 z m 36.22,18.762 c -0.29,-18.293 -11.78,-29.016 -15.21,-32.415 -2.13,3.625 -6.32,12.95 -6.6,22.747 -0.56,18.847 7.25,25.535 10.61,29.179 1.62,-5.402 11.34,-9.679 11.2,-19.511 z m 25.59,38.367 c 0,-3.524 -0.44,-5.535 -1.44,-8.985 -3.78,-13.015 -11.45,-18.496 -15.63,-24.363 -1.67,3.848 -4.74,9.305 -4.76,17.559 -0.04,15.722 9.54,29.121 15.54,33.359 2.28,0.086 6.29,-9.473 6.29,-17.57 z m 25.12,19.804 c -5.3,-11.562 -8.72,-11.941 -14.88,-19.14 -1.06,-1.239 -5.68,10.988 -1.21,26.359 3.58,12.305 11.83,16.844 15.81,21.016 1.57,1.648 5.92,-15.949 0.28,-28.235 z m 30.91,32.024 c -5.22,-9.094 -9.95,-7.012 -18.64,-19.914 -0.95,-1.426 -3.25,10.676 1.96,27.023 4,12.598 16.4,20.438 17.72,20.75 1.99,0.481 5.16,-17.039 -1.04,-27.859 z m 33.18,30.234 c -10.14,-15.117 -10.71,-9.953 -21.81,-24.738 -0.6,-0.809 -0.83,19.289 3.14,28.144 6.24,13.965 17.06,22.168 18.67,22.454 1.61,0.293 5.6,-17.532 0,-25.86 z m 30.35,22.5 c -8.27,-6.711 -12.04,-11.172 -16.86,-19.035 -1.65,-2.684 -5.67,14.902 5.09,31.777 6.6,10.344 19.72,19.61 19.44,18.379 -0.96,-4.121 6.37,-19.746 -7.67,-31.121 z M 1746,895.16 c 8.53,10.117 23.02,18.25 24.64,17.254 1.66,-1.023 -2.44,-16.648 -11.78,-25.848 -9.44,-9.289 -24.03,-18.332 -25.74,-18.222 -1.7,0.105 5.2,17.722 12.88,26.816 z M 1524.03,656.43 c -4.33,4.968 -8.34,7.695 -8.76,7.41 -1.21,-0.848 -8.21,-12.813 -10.62,-26.797 -13.64,26.086 -21.2,52.441 -22.43,83.672 -4.18,106.086 84.67,191.504 193.07,191.125 24.74,-0.078 45.07,-4.66 67.29,-13.672 -4.97,-6.223 -8.58,-13.664 -11.04,-19.902 -0.1,5.75 -1.62,10.214 -1.2,13.808 0.27,2.207 -15.35,-2.656 -29.22,-24.738 -3.22,-5.117 -5.22,-10.781 -6.46,-16.004 -0.29,8.289 -2.24,14.746 -2.8,14.59 -1.42,-0.383 -17.26,-6.914 -25.51,-26.262 -1.45,-3.387 -2.5,-6.875 -3.27,-10.273 -0.7,5.898 -2.22,9.785 -2.7,9.765 -1.04,-0.047 -17.63,-6.863 -25.81,-26.738 -1.89,-4.617 -2.9,-9.344 -3.38,-13.73 -1.46,6.914 -4.15,11.152 -4.99,10.07 -5.73,-7.266 -16.92,-10.481 -22.86,-28.801 -1.39,-4.297 -1.96,-8.594 -2.02,-12.605 -2.47,6.199 -5.93,9.773 -6.73,9.597 -1.62,-0.332 -18.52,-16.394 -21.04,-32.586 -1.01,-6.386 -0.55,-12.324 0.45,-17.296 -3.24,5.214 -7.53,9.042 -9.27,14.355 -2.66,-1.426 -16.97,-14.871 -17.43,-32.109 -0.18,-6.707 0.82,-12.996 2.19,-18.309 -4.75,8.641 -11.51,12.695 -12.25,12.234 -1.24,-0.761 -11.93,-12.312 -14.41,-33.066 -0.58,-4.863 0.01,-9.52 1.2,-13.738 z m 249.57,234.48 c 10.83,4.863 21.3,4.953 22.43,4.817 2.46,-0.293 -5.47,-14.395 -19.61,-20.461 -14.57,-6.258 -25.45,-7.391 -26.69,-6.786 -1.87,0.926 12.34,17.235 23.87,22.43 z m -96.4,-222.148 c -2.97,0.644 -4.08,6.437 -3.48,8.73 1.34,5.09 9.16,15.625 11.98,19.317 0.71,0.918 2.14,0.07 2.3,-1.043 1.71,-12.227 -0.01,-29.375 -10.8,-27.004 z m 57.7,76.769 c -6.45,-4.394 -15.77,1.551 -13.9,4.207 11.99,17.129 27.99,29.043 34.38,33.028 10.29,6.398 11.37,6.847 11.91,3.234 0.33,-2.187 0.44,-13.379 -7.85,-22.48 -6.87,-7.54 -13.76,-6.907 -17.31,-7.696 -2.38,-0.539 -2.25,-6.914 -7.23,-10.293 z m -18.17,-87.199 c -12.05,-7.391 -18.59,6.731 -20.29,9.191 -0.74,1.063 -2.66,4.168 -1.61,9.481 0.82,4.18 1.51,9.855 -1.24,27.863 -1.21,7.918 15.17,27.559 18.86,30.985 3.83,3.574 9.4,-1.778 9.76,-7.579 0.69,-11.015 -5.5,-16.816 -11.82,-21.523 -7.75,-5.77 -9.23,-13.289 -7.75,-15.293 0.57,-0.789 4.05,-0.809 5.58,2.453 4.67,9.942 18.02,14.942 20.15,20.145 3.33,8.136 0.9,13.351 0.57,16.777 -0.29,2.988 2.63,3.742 4.83,3.41 2.84,-0.422 4.11,-4.277 5.55,-8.027 8.62,-22.492 -13.09,-36.074 -16.58,-41.406 -1.62,-2.454 3.36,-20.735 -6.01,-26.477 z m 60.83,136.66 c -0.62,3.606 25.59,12.422 26.49,9.817 1.68,-4.817 -5.41,-17.746 -14.18,-20.977 -9.97,-3.672 -14.12,-2.578 -13.74,-1.164 0.7,2.609 2,9.004 1.43,12.324 z m 61.84,16.016 c -3.09,-8.817 -27.46,-16.66 -26.31,-10.457 0.52,2.793 0.06,6.472 1.91,6.797 2.71,0.457 10.41,3.152 22.38,6.218 1.21,0.305 2.78,-0.371 2.02,-2.558 z M 1814.78,876 c 3.57,2.246 7.42,3.203 9.68,0.965 7.88,-7.774 -8.52,-12.129 -5.11,-18.094 5.59,-9.797 14.51,-19.172 22.36,-25.215 3.7,-2.843 4.24,-9.25 -9.88,-12.168 -14.22,-2.941 -70.82,-17.863 -100.69,-49.504 -37.39,-39.609 -61.15,-90.925 -64.39,-83.867 -3.27,7.11 -10.76,8.254 -9.59,10.274 53.68,92.5 137.82,165.148 157.62,177.609 z M 1554.09,498.547 c -2.13,-0.418 -8.91,-0.672 -7.39,8.254 0.94,5.508 6.92,7.812 9.95,4.687 -0.65,-4.277 -2.13,-8.457 -2.56,-12.941 z m 305.3,246.211 c -4.36,9.101 -1.37,15.078 -2.67,21.73 -0.96,4.91 -8.26,21.094 -12.92,32.293 -2.2,5.274 11.28,3.985 1.33,23.028 -0.28,0.566 13.84,5.781 -0.28,16.496 -7.9,5.984 -13.46,13.359 -17.83,19.988 -0.6,0.93 -1.18,2.754 0.1,3.887 7.98,7.101 8.15,17.316 -0.52,22.539 -6.26,3.761 -13.43,-0.059 -20.05,-4.336 -2.17,-1.414 -3.27,-2.274 -5.54,-1.356 -1.15,0.469 -3.38,2.039 -5.38,3.426 8.14,7.871 9.72,15.645 9.09,16.934 -0.44,0.879 -13.82,3.879 -30.39,-2.977 -0.36,0.203 -0.75,0.418 -1.17,0.653 6.82,11.796 2.98,20.128 2.48,20.703 -0.01,0.011 -0.03,0.011 -0.04,0.019 12.42,17.344 24.75,28.887 36.94,39.961 0,0.012 0.26,0.293 0.27,0.305 0.8,0.801 1.09,1.699 -0.43,2.644 -1.27,0.813 -1.64,0.996 -3.2,1.848 -40.84,22.742 -87.4,34.695 -134.4,34.695 -152.49,0 -276.54,-124.062 -276.54,-276.523 0,-88.348 44.83,-173.555 118.08,-226.485 4.88,-3.535 8.27,-4.871 8.27,-4.871 1.21,-0.429 2.47,-0.421 3.23,0.586 l 1.09,1.414 c 0.69,0.899 0.96,1.758 0.96,2.551 0,2.02 -2.92,3.828 -6.34,8.906 -9.91,14.688 -14.28,31.387 -14.28,45.379 0,15.305 4.66,29.219 13.61,40.832 11.04,-11.496 35.11,-32.648 34.59,-51.886 -0.59,-21.602 -20.8,-20.536 -16.44,-36.739 2.73,-10.175 10.35,-5.984 11.66,-13.699 2.27,-13.359 20.24,-21.906 28.07,-20.723 1.9,0.282 3.51,-1.289 7.26,-5.097 5.35,-5.43 18.5,-4.688 24.34,-3.625 5.54,1.015 12.51,-4.051 24.11,-2.774 14.51,1.602 18.21,2.727 24.4,2.813 10.49,0.148 67.54,0.996 108.11,-5.352 6.99,-1.093 9.21,2.051 6.07,7.512 -14.7,25.606 -16.74,47.344 -8.26,74.715 14.98,-1.004 36.51,-5.059 64.87,11.984 10.07,6.055 15.7,18.946 15.21,28.543 -0.32,6.231 -3.05,14.121 -1.44,20.196 2.17,8.156 3.76,7.96 6.12,9.621 10.83,7.617 3,13.66 1.33,14.277 3.27,1.328 6.87,8.437 3.09,13.738 -1.94,2.063 -7.84,18.633 -1.04,22.09 7.35,3.723 15.72,5.313 24.15,9.016 5.81,2.422 10.43,9.179 7.13,18.164 -3.97,10.789 -26.13,61.543 -26.8,62.957" /><path
         id="path18"
         style="fill:#008378;fill-opacity:1;fill-rule:nonzero;stroke:none"
         d="m 1820.94,765.52 c -14.65,-0.536 -31.65,-18.485 -37.22,-20.977 -5.83,-2.605 -3.75,-4.258 -0.36,-3.027 7.3,2.668 17.69,13.8 32.04,18.996 11.34,4.09 10.6,-5.235 14.86,-4.719 1.99,0.234 -0.85,10.051 -9.32,9.727" /><path
         id="path20"
         style="fill:#008378;fill-opacity:1;fill-rule:nonzero;stroke:none"
         d="m 1818.85,723.441 c -0.66,-2.746 -16.35,-1.496 -24.87,-0.742 -2.03,0.176 -5.44,0.489 1.06,4.364 5.12,3.058 12.16,8.214 21.36,9.992 0.75,0.144 2.22,-0.09 2.61,-1.809 0.94,-4.305 0.53,-9.004 -0.16,-11.805 z m 5.4,27.723 c -1.2,-0.293 1.28,-6.543 -5.09,-6.934 -13.77,-0.847 -24.68,-13.886 -33.06,-17.8 -8.4,-3.918 -10.15,-3.848 -11.4,-4.18 -1.12,-0.305 -0.7,-1.738 0.22,-1.867 35.12,-4.688 48.61,-3.406 48.91,-2.129 0.57,2.414 -1.95,3.625 -1.44,5.176 1.32,3.906 1.99,11.32 0.48,16.406 -0.64,2.402 5.2,0.793 5.2,4.035 0,1.746 -1.76,7.781 -3.82,7.293" /><path
         id="path22"
         style="fill:#008378;fill-opacity:1;fill-rule:nonzero;stroke:none"
         d="m 1864.7,673.43 c -2.69,0.039 -13.5,-4.91 -17.56,-7.489 -2.34,-1.496 -13.34,-8.273 -12.55,2.45 0.28,3.761 2.72,13.078 2.66,15.617 -0.1,3.875 -3.21,2.351 -3.25,0.058 -0.14,-5.382 -1.22,-9.472 -2.33,-15.781 -0.95,-5.402 3.74,-12.082 11.04,-8.195 6.05,3.223 14.31,8.762 21.64,10.168 1.86,0.351 2.19,3.144 0.35,3.172" /><path
         id="path24"
         style="fill:#008378;fill-opacity:1;fill-rule:nonzero;stroke:none"
         d="m 1661.32,635.063 c -2.08,0.781 -1.5,-3.508 -4.31,-3.04 -3.68,0.625 -0.59,3.938 -5.39,9.004 -2.38,2.532 -8.38,3.594 -12.79,10.664 -7,11.192 -0.99,36.133 9.24,32.559 5.68,-1.992 4.69,-15.215 2.99,-24.168 -1.06,-5.519 7.53,-8.242 8.31,-6.309 1.3,3.243 -3.17,2.93 -4.18,5.887 -1.57,4.543 10.51,22.735 -5.29,28.008 -11.53,3.848 -19.12,-10.664 -17.73,-26.727 1.17,-13.546 10.18,-19.132 15.33,-21.046 6.95,-2.579 1.68,-12.098 11.06,-12.137 4.15,-0.02 5.01,6.453 2.76,7.305" /><path
         id="path26"
         style="fill:#008378;fill-opacity:1;fill-rule:nonzero;stroke:none"
         d="m 1753.58,935.246 c 0.48,-0.183 1.04,-0.027 1.36,0.383 l 19.51,24.676 c 0.5,0.636 0.26,1.582 -0.49,1.894 -1.1,0.449 -2.2,0.891 -3.3,1.321 -0.51,0.195 -1.08,0.039 -1.41,-0.383 l -19.59,-24.774 c -0.53,-0.664 -0.24,-1.633 0.55,-1.906 1.12,-0.398 2.24,-0.801 3.37,-1.211" /><path
         id="path28"
         style="fill:#008378;fill-opacity:1;fill-rule:nonzero;stroke:none"
         d="m 1717.38,945.297 c 1.13,-0.207 2.24,-0.43 3.36,-0.664 0.58,-0.129 1.17,0.183 1.38,0.73 l 11.42,28.254 c 0.28,0.692 -0.13,1.485 -0.86,1.649 -1.26,0.285 -2.53,0.547 -3.79,0.812 -0.35,0.067 -0.7,-0.109 -0.83,-0.441 -1.45,-3.582 -9.4,-23.27 -11.58,-28.692 -0.3,-0.711 0.14,-1.504 0.9,-1.648" /><path
         id="path30"
         style="fill:#008378;fill-opacity:1;fill-rule:nonzero;stroke:none"
         d="m 1677.17,949.25 c 1.14,-0.008 2.27,-0.027 3.4,-0.059 0.63,-0.019 1.18,0.461 1.24,1.106 l 2.82,29.988 c 0.06,0.695 -0.48,1.309 -1.18,1.328 -1.14,0.039 -2.29,0.071 -3.43,0.09 -0.64,0.02 -1.18,-0.469 -1.24,-1.105 l -2.81,-30.02 c -0.07,-0.711 0.49,-1.328 1.2,-1.328" /><path
         id="path32"
         style="fill:#008378;fill-opacity:1;fill-rule:nonzero;stroke:none"
         d="m 1638.09,946.313 c 1.12,0.183 2.23,0.351 3.36,0.515 0.68,0.098 1.15,0.754 1.02,1.438 l -5.71,29.558 c -0.13,0.645 -0.74,1.074 -1.39,0.977 -1.12,-0.164 -2.25,-0.34 -3.38,-0.528 -0.67,-0.117 -1.13,-0.769 -0.99,-1.445 l 5.7,-29.539 c 0.13,-0.656 0.74,-1.074 1.39,-0.976" /><path
         id="path34"
         style="fill:#008378;fill-opacity:1;fill-rule:nonzero;stroke:none"
         d="m 1598.19,937.191 c 0.27,-0.558 0.9,-0.812 1.49,-0.605 1.07,0.371 2.16,0.742 3.23,1.102 0.71,0.234 1.04,1.035 0.71,1.699 l -13.53,27.16 c -0.27,0.547 -0.92,0.808 -1.5,0.605 -1.09,-0.371 -2.17,-0.761 -3.25,-1.152 -0.68,-0.254 -1,-1.047 -0.67,-1.699 l 13.52,-27.11" /><path
         id="path36"
         style="fill:#008378;fill-opacity:1;fill-rule:nonzero;stroke:none"
         d="m 1560.91,919.953 c 0.38,-0.437 1.01,-0.535 1.51,-0.254 1,0.567 2.01,1.133 3.02,1.68 0.68,0.383 0.85,1.289 0.33,1.875 l -20.23,23.117 c -0.39,0.438 -1.04,0.547 -1.54,0.254 -1,-0.586 -2,-1.184 -2.98,-1.777 -0.66,-0.391 -0.79,-1.282 -0.3,-1.856 l 20.19,-23.039" /><path
         id="path38"
         style="fill:#008378;fill-opacity:1;fill-rule:nonzero;stroke:none"
         d="m 1526.26,895.48 c 0.45,-0.312 1.06,-0.281 1.48,0.071 0.89,0.762 1.8,1.512 2.71,2.254 0.63,0.519 0.6,1.484 -0.07,1.945 l -25.58,17.773 c -0.46,0.313 -1.08,0.282 -1.51,-0.089 -0.88,-0.77 -1.76,-1.551 -2.63,-2.344 -0.59,-0.516 -0.53,-1.465 0.11,-1.902 l 25.49,-17.708" /><path
         id="path40"
         style="fill:#008378;fill-opacity:1;fill-rule:nonzero;stroke:none"
         d="m 1496.06,864.367 c 0.49,-0.195 1.05,-0.039 1.38,0.371 0.76,0.93 1.51,1.836 2.27,2.746 0.54,0.645 0.29,1.621 -0.49,1.922 l -29.4,11.446 c -0.51,0.207 -1.09,0.039 -1.42,-0.379 -0.72,-0.938 -1.45,-1.887 -2.16,-2.832 -0.49,-0.645 -0.21,-1.582 0.54,-1.875 l 29.28,-11.399" /><path
         id="path42"
         style="fill:#008378;fill-opacity:1;fill-rule:nonzero;stroke:none"
         d="m 1440.49,832.211 31.51,-4.395 c 0.51,-0.07 1.01,0.184 1.24,0.633 0.57,1.067 1.16,2.129 1.74,3.184 0.41,0.742 -0.05,1.68 -0.9,1.797 l -31.68,4.406 c -0.51,0.078 -1.02,-0.195 -1.27,-0.664 -0.52,-1.067 -1.06,-2.141 -1.58,-3.215 -0.36,-0.742 0.12,-1.629 0.94,-1.746" /><path
         id="path44"
         style="fill:#008378;fill-opacity:1;fill-rule:nonzero;stroke:none"
         d="m 1423.24,784.426 32.14,3.086 c 0.49,0.039 0.9,0.383 1.05,0.851 0.37,1.16 0.74,2.332 1.12,3.496 0.27,0.84 -0.4,1.688 -1.28,1.602 l -32.32,-3.086 c -0.51,-0.051 -0.93,-0.402 -1.07,-0.891 -0.32,-1.179 -0.63,-2.351 -0.93,-3.535 -0.22,-0.82 0.45,-1.601 1.29,-1.523" /><path
         id="path46"
         style="fill:#008378;fill-opacity:1;fill-rule:nonzero;stroke:none"
         d="m 1447.63,746.234 c 0.15,1.25 0.29,2.489 0.45,3.739 0.12,0.898 -0.75,1.613 -1.6,1.308 l -31.33,-10.886 c -0.46,-0.168 -0.79,-0.586 -0.82,-1.075 -0.09,-1.23 -0.17,-2.461 -0.24,-3.703 -0.05,-0.859 0.81,-1.504 1.62,-1.211 l 31.12,10.813 c 0.44,0.156 0.75,0.547 0.8,1.015" /><path
         id="path48"
         style="fill:#008378;fill-opacity:1;fill-rule:nonzero;stroke:none"
         d="m 1446.85,703.461 c -0.1,1.289 -0.18,2.586 -0.26,3.875 -0.05,0.937 -1.09,1.477 -1.88,0.957 l -28.37,-18.633 c -0.39,-0.262 -0.61,-0.722 -0.55,-1.18 0.17,-1.25 0.33,-2.5 0.52,-3.75 0.13,-0.878 1.13,-1.328 1.89,-0.839 l 28.11,18.464 c 0.36,0.247 0.58,0.665 0.54,1.106" /><path
         id="path50"
         style="fill:#008378;fill-opacity:1;fill-rule:nonzero;stroke:none"
         d="m 1453.95,660.707 c -0.34,1.309 -0.67,2.625 -0.99,3.934 -0.22,0.957 -1.42,1.261 -2.09,0.539 l -23.08,-25.41 c -0.3,-0.332 -0.4,-0.801 -0.25,-1.223 0.42,-1.231 0.85,-2.449 1.28,-3.66 0.31,-0.871 1.45,-1.086 2.06,-0.41 l 22.79,25.105 c 0.29,0.305 0.38,0.734 0.28,1.125" /><path
         id="path52"
         style="fill:#008378;fill-opacity:1;fill-rule:nonzero;stroke:none"
         d="m 1465.74,622.766 -16.27,-30.957 c -0.19,-0.371 -0.19,-0.821 0.02,-1.192 0.68,-1.152 1.36,-2.304 2.05,-3.445 0.49,-0.813 1.69,-0.774 2.13,0.066 l 16.1,30.637 c 0.18,0.34 0.19,0.762 0.02,1.113 -0.64,1.25 -1.26,2.5 -1.87,3.75 -0.44,0.899 -1.71,0.918 -2.18,0.028" /><path
         id="path54"
         style="fill:#008378;fill-opacity:1;fill-rule:nonzero;stroke:none"
         d="m 1488.63,587.973 c -0.6,0.84 -1.92,0.566 -2.16,-0.442 l -8.71,-35.945 c -0.1,-0.383 0,-0.793 0.25,-1.086 0.91,-1.055 1.83,-2.098 2.74,-3.145 0.66,-0.73 1.88,-0.429 2.11,0.528 l 8.62,35.539 c 0.07,0.351 0,0.723 -0.22,1.016 -0.89,1.171 -1.76,2.343 -2.63,3.535" /><path
         id="path56"
         style="fill:#008378;fill-opacity:1;fill-rule:nonzero;stroke:none"
         d="m 1253.84,405.031 h -3.5 V 1035.5 h 3.5 V 405.031" /><path
         id="path58"
         style="fill:#008378;fill-opacity:1;fill-rule:nonzero;stroke:none"
         d="M 1039.87,934.086 C 929.16,867.004 828.828,785.492 741.145,692.465 c 111.043,75.469 254.414,99.258 389.515,54.082 8.68,-2.902 4.32,-15.938 -4.37,-13.027 -117.07,39.14 -240.595,24.832 -342.372,-30.977 112.031,45.82 247.922,33.262 352.552,-59.582 6.84,-6.082 -2.28,-16.356 -9.13,-10.273 -200.395,177.832 -520.445,48.613 -538.891,-220.34 -0.625,-9.141 -14.336,-8.196 -13.711,0.945 2.371,34.602 9.532,66.992 20.664,96.828 -15.539,-23.058 -30.398,-46.562 -44.582,-70.508 -4.668,-7.883 -16.48,-0.879 -11.812,7 19.644,33.184 40.601,65.559 62.808,97.024 -27.957,-22.492 -59.003,-41.926 -92.82,-57.551 -8.312,-3.848 -14.082,8.633 -5.762,12.473 31.27,14.453 60.098,32.265 86.219,52.82 -31.543,-15.731 -67.058,-25.274 -105.293,-26.785 -9.148,-0.364 -9.695,13.367 -0.547,13.73 150.649,5.985 256.946,143.485 231.66,287.422 -1.582,9.012 11.954,11.395 13.536,2.371 4.867,-27.683 5.121,-55.156 1.308,-81.601 32.422,89.785 35.461,190.187 2.246,285.434 -3.015,8.65 9.961,13.17 12.981,4.52 40.683,-116.673 28.719,-240.782 -24.102,-345.197 90.86,98.348 195.535,184.297 311.498,254.571 7.84,4.746 14.96,-7.012 7.13,-11.758 v 0" /><path
         id="path60"
         style="fill:#008378;fill-opacity:1;fill-rule:nonzero;stroke:none"
         d="m 777.656,457.727 1.02,1.164 c 0.867,1.074 0.797,2.363 0.34,3.621 l -0.801,1.914 c -0.891,2.219 0.359,6.875 1.805,8.711 l 4.23,5.285 c 1.816,2.324 3.496,4.648 4.031,5.879 1.192,2.742 7.153,13.672 7.981,15.847 0.84,2.188 6.023,13.086 6.621,14.415 0.918,2.011 5.887,11.523 8.262,12.929 0.418,0.246 0.957,0.422 1.543,0.293 l 1.652,-0.332 0.816,-0.273 c 1.047,1.308 2.016,2.402 3.125,2.929 l 2.539,1.399 c 0.91,0.469 2.043,0.847 2.981,0.183 7.722,-5.625 5.027,-6.765 6.504,-15.586 0.34,-2.089 4.492,-15.105 5.593,-16.863 1.262,-2.023 7.883,-18.508 8.489,-20.441 0.312,-0.985 0.554,-2.488 0.801,-3.875 l 0.363,-1.797 0.281,-0.91 1.106,-1.231 c 0.488,-0.593 0.957,-1.367 0.957,-2.5 0,-1.758 -0.723,-5 -1.782,-6.238 l -0.742,-0.949 c 2.988,-2.442 -1.414,-7.098 -3.836,-7.742 -1.094,-0.293 -7.937,0.125 -14.133,0.566 l -12.527,0.957 c -0.332,0.059 -18.145,2.781 -18.879,2.461 l -1.414,-0.938 c -0.625,-0.421 -1.418,-0.851 -2.48,-0.929 l -1.141,-0.067 -0.754,-0.117 -0.715,-1.23 0.129,-1.164 c 0.059,-0.789 -0.012,-2.313 -1.824,-2.442 l -3.852,-0.535 c -1.316,-0.129 -3.25,-0.234 -4.234,0.848 l -1.508,1.914 c -0.75,1.191 -1.746,2.238 -1.18,3.73 l 0.633,1.114 z m 17.754,24.464 -3.308,-4.824 c 2.175,-3.097 2.832,-6.34 3.703,-9.172 0.41,-1.211 0.886,-2.117 1.168,-2.468 l 1.086,0.027 1.386,-0.106 2.5,-0.273 c 0.95,-0.109 11.446,-1.66 13.34,-1.777 l 8.164,-0.821 c 3.633,-0.382 6.953,-0.695 7.481,-0.644 0.859,0.078 1.816,-0.156 2.547,-0.363 l 1.64,-0.489 c 0.278,-0.047 1.008,0.344 1.684,0.899 l 0.32,1.672 c 0.352,1.394 1.621,2.558 1.309,4.089 l -1.797,5.723 c -0.82,2.52 -1.719,5.274 -1.785,5.938 -0.039,0.351 -1.438,3.8 -3,7.511 l -3.164,7.469 -5.52,17.188 c 0,0 -0.367,1.808 -0.976,3.527 -0.309,0.879 -0.665,1.668 -1.024,2.215 -4.016,0.207 -4.902,-3.992 -7.766,-3.477 l -0.972,0.235 -0.781,0.117 c -0.84,0 -1.711,-1.903 -1.985,-2.528 -0.476,-1.066 -3.801,-8.644 -4.265,-10.058 l -1.25,-2.727 -2.18,-4.414 -2.102,-4.324 -0.679,-1.523 -0.657,-1.68 -0.8,-1.379 -2.317,-3.563 v 0" /><path
         id="path62"
         style="fill:#008378;fill-opacity:1;fill-rule:nonzero;stroke:none"
         d="m 1086.71,464.133 1.35,0.129 1.92,0.293 0.83,0.105 h 0.73 c 6.16,-0.332 5.37,-3.914 6.56,-9.344 0.47,-2.16 1.5,-2.851 1.79,-2.851 l 1.78,0.39 c 0.8,0.235 1.79,0.489 2.85,0.567 1.38,0.125 2.83,0.34 4.2,0.234 l 0.86,0.039 c 1.07,0.176 2.89,0.653 3.13,-0.988 0.41,-2.879 -3.03,-4.559 -5.27,-5.43 l -2.92,-0.996 c -2.19,-0.722 -4.66,-1.347 -6.22,-1.472 l -0.87,-0.168 c -2.1,-0.457 -3.1,0.793 -4,2.609 l -1.72,3.301 c -0.42,0.847 -0.72,1.582 -0.99,2.625 l -0.43,2.129 c -1.47,0.129 -2.32,0.586 -3.81,0.09 -0.05,-0.547 -0.32,-0.93 -1.4,-2.219 l -1.13,-1.543 -0.77,-1.27 c -0.44,-0.769 -0.88,-1.543 -1.73,-2.148 -1.56,-1.824 -2.2,-2.793 -3.69,-3.348 -3.39,-1.281 -6.67,0.867 -4.82,4.031 l 0.56,0.793 2.76,6.707 c 1.44,3.528 2.79,7.11 2.95,8.379 0.37,2.981 1.71,7.383 2.32,9.075 l 0.92,2.168 c 0.26,0.585 0.41,1.043 0.46,1.531 l 0.25,2.109 0.02,0.762 -1.17,1.172 c -0.66,0.683 -1.3,1.621 -0.96,2.629 l 0.46,0.781 2.22,1.992 -1.63,0.731 -4.68,1.144 -2.78,1.395 -1.72,0.968 c -0.98,0.672 -2.35,3.848 -2.03,4.832 0.49,1.457 4.56,2.473 5.6,2.18 l 4.5,-1.484 c 3.82,-1.242 4.51,-1.543 8.43,-1.282 l 1.43,3.84 c 0.85,2.246 1.84,4.774 2.23,5.508 l 1.43,2.93 c 1.79,3.555 4.47,5.918 7.2,8.769 l 2.66,2.743 c 2.24,2.148 5.96,3.886 9.06,3.886 8.02,0 5.41,-6.445 3.77,-11.101 -0.64,-1.789 -4.15,-5.5 -5.47,-6.992 l -1.16,-1.504 -2.69,-4.629 -1.9,-3 2.01,-0.516 2.97,-0.605 c 0,0 3.38,0.254 7.33,0.359 7.24,0.207 10.52,-0.184 17.21,-2.488 1.32,-0.45 4.6,-1.516 4.46,-3.45 l 0.12,-0.964 0.3,-1.114 c 0.92,-4.375 -9.46,-2.726 -11.19,-1.964 -1.76,0.761 -10.2,1.816 -10.98,1.718 -1.03,-0.125 -12.43,-0.254 -13.5,-0.125 l -3.97,0.332 -2.32,0.137 -0.77,0.027 -1.98,-1.992 -2.88,-3.269 c -1.12,-1.438 -2.92,-6.133 -2.92,-7.168 l -0.15,-0.989 -0.35,-1.218 -1.05,-3.008 -1.01,-2.824 -0.34,-0.965 -0.26,-1.711 z m 10.93,32.285 0.77,0.879 2.48,3.312 c 0.36,0.586 2.52,3.301 4.07,5.821 1.55,2.488 1.66,2.84 2.49,4.277 l 0.81,1.133 c 0.72,0.848 1.49,1.668 2,2.664 -0.76,-0.156 -2.52,-1.004 -3.42,-1.68 -0.36,-0.273 -1.06,-1.082 -1.89,-2.129 l -2.16,-2.761 c -1,-1.231 -2.38,-3.899 -2.57,-4.582 l -2.58,-6.934 v 0" /><path
         id="path64"
         style="fill:#008378;fill-opacity:1;fill-rule:nonzero;stroke:none"
         d="m 867.949,481.059 c 2.219,2.226 4.778,4.754 5.949,5.742 l 3.329,3.047 c 1.046,0.886 2.316,1.843 3.617,1.843 l 6.023,0.403 3.621,0.047 1.438,-0.164 c 0.359,-0.079 0.859,-0.227 1.211,-0.579 l 0.984,-1.015 1.067,-1.375 c 0.625,-0.957 1.21,-2.297 0.671,-3.653 -0.73,-1.816 -2.183,-5.714 -3.152,-7.531 -0.906,-1.707 -0.937,-2.097 -0.852,-2.91 l 0.532,-0.937 c 0.379,-0.633 0.593,-1.473 -0.102,-2.461 l -0.762,-0.946 c -0.828,-0.871 -1.699,-1.711 -2.339,-2.726 -1.067,-1.641 -6.106,-14.129 -6.821,-16.719 -0.359,-1.316 -5.039,-16.348 -6.355,-19.707 -0.695,-1.758 -2.442,-4.852 -4.063,-7.684 l -2.246,-3.957 -1.23,-2.461 -1.114,-2.832 c -0.324,-0.847 -0.507,-1.55 -0.507,-2.214 0,-4.622 -6.621,-5.872 -8.75,-1.622 -0.996,2 -1.453,4.403 0,6.18 l 1.941,2.258 c 0.695,0.84 1.406,1.777 2.031,2.859 1.301,2.278 6.543,13.528 7.368,15.664 0.867,2.227 5.828,15.032 6.277,17.422 l 0.969,4.426 c -6.836,0.508 -10.215,-0.148 -13.696,7.051 -0.906,1.894 -1.109,3.523 -1.011,4.902 l 0.32,1.805 0.41,1.308 c 0.547,1.641 1.016,2.227 1.016,2.227 l 4.226,4.309 z m 6.106,-3.653 c -0.852,-1.301 -1.477,-2.5 -1.477,-2.5 l -0.816,-1.183 c -0.434,-0.633 -0.949,-1.453 -1.301,-2.196 l -0.41,-0.898 -0.086,-0.461 c 0.047,-1.316 1.765,-2.402 2.879,-2.676 2.469,-0.605 5.652,-1.179 7.676,0.84 l 0.683,0.871 2.246,3.184 0.977,1.277 0.429,0.977 0.481,1.875 0.789,3.82 0.859,2.441 c 0.293,1.063 -0.273,1.7 -1.379,1.629 l -0.964,-0.176 -1.231,-0.39 c -4.043,-1.348 -7.019,-2.84 -9.355,-6.434 v 0" /><path
         id="path66"
         style="fill:#008378;fill-opacity:1;fill-rule:nonzero;stroke:none"
         d="m 660.922,509.672 c 0.223,-0.285 -0.188,-0.723 -0.293,-0.91 l -1.066,-1.688 c -6.27,-9.699 0,0 -6.27,-9.699 l -1.035,-1.66 -0.535,-0.645 c 0.203,-0.281 -0.227,-0.847 -0.305,-0.996 l -1.113,-2.109 c -4.825,-8.895 -1.883,-3.477 -6.778,-12.488 l -1.777,-3.418 -1.328,-2.434 -2.117,-3.75 c -0.715,-1.297 -1.379,-2.586 -1.797,-3.641 l -0.512,-1.3 c 1.035,-0.379 1.621,-0.204 2.473,-0.204 2.265,0 5,0.625 7.168,0.946 0.781,0.097 1.504,-0.196 2.09,-0.516 l 1.726,-1.191 1.543,-1.106 c 0.488,-0.293 0.844,-0.398 1.086,-0.398 6.594,0 11.809,-0.891 17.684,-4.094 0.937,-0.508 6.836,-2.039 7.531,0.02 0.488,1.425 0.156,3.75 0.156,5.254 0,1.789 -1.199,11.535 -1.316,13.437 -0.121,1.914 -1.196,15.254 -1.196,16.574 0,1.309 -1.582,12.078 -1.582,13.875 0,0.715 -0.652,3.145 -1.453,5.832 l -1.855,6.133 -1.055,4.219 -0.449,2.332 c -0.125,0.918 -0.305,2.031 0.383,2.766 l 0.742,0.515 c 1.324,0.567 3.426,0.274 4.781,0.078 l 1.086,-0.496 0.715,-0.84 c 1.023,-1.562 1.297,-3.41 1.875,-5.156 l 1.773,-7.363 1.719,-6.926 c 0,0 0.102,-0.078 0.207,-0.594 l 0.106,-0.664 0.254,-2.031 0.597,-5.832 0.762,-8.289 c 0,0 1.191,-21.367 1.433,-23.391 l 1.329,-7.136 0.714,-4.348 0.165,-1.707 c 0.136,-2.981 -2.735,-4.895 -5.235,-5.774 -1.258,-0.437 -3.914,-0.281 -6.25,-0.046 l -6.023,0.722 c -5.059,0.528 -7.508,3.426 -10.821,3.738 l -1.613,0.012 -1.949,-0.09 c -3.598,-0.039 -7.949,1.758 -11.301,2.95 -0.723,0.253 -2.383,0.089 -4.348,-0.254 l -2.656,-0.489 -2.012,-0.261 c -1.699,0 -6.335,0.632 -7.847,5.476 -0.793,2.52 0.347,5.246 1.59,7.453 l 1.961,3.164 c 0.625,0.977 1.117,1.758 1.379,2.352 1.203,2.754 11.414,21.242 13.566,25.098 2.156,3.867 17.168,26.574 17.168,26.574 2.43,2.312 4.058,2.254 5.039,-0.07 l 0.809,-2.344 c 0.164,-0.41 0.125,-0.821 0.058,-1.133 l -0.344,-0.957 -1.132,-1.883 c -0.829,-1.211 -1.7,-2.219 -1.7,-2.219 l -2.175,-3.308 -1.543,-2.434 -0.645,-1.101 -0.242,-0.137 v 0" /><path
         id="path68"
         style="fill:#008378;fill-opacity:1;fill-rule:nonzero;stroke:none"
         d="m 1024.68,465.961 c -0.22,-0.617 -0.27,-0.781 -0.55,-1.594 -0.14,-0.379 -0.35,-0.82 -0.64,-1.172 l -0.43,-0.586 -0.61,-0.75 c -1.75,-1.757 -4.73,-0.195 -5.49,1.883 -0.4,1.086 -1.02,3.242 -0.66,4.465 l 0.28,0.672 1.47,1.691 c 2.32,2.422 3.59,2.813 6.82,3.465 l 2.59,0.461 0.89,-0.43 1.42,-0.871 c 1.02,-0.73 2.33,-1.914 2.78,-3.496 0.74,-2.597 0.81,-7.703 -0.19,-9.578 -1.2,-2.219 -4.07,-7.199 -6.24,-8.555 l -0.52,-0.312 -0.42,-0.293 c -0.39,-0.305 -0.73,-0.703 -0.73,-1.848 0,-1.375 0.21,-1.883 0.38,-2.09 l 0.88,-0.476 0.73,-0.051 1.41,0.117 2.77,0.461 0.86,0.293 1.14,0.43 c 1.04,0.301 2.35,-0.02 2.24,-1.856 l 0.05,-0.988 0.14,-0.984 c 0.03,-1.067 -0.6,-1.692 -1.71,-2.18 -2.47,-1.121 -4.4,-2.851 -7.28,-2.988 -2.69,-0.117 -5.01,0.187 -6.53,1.875 -0.95,1.086 -1.57,1.992 -1.99,2.375 l -1.1,-0.461 -2.66,-1.192 c -3.84,-1.589 -2.6,-1.074 -5.46,-2.265 l -0.71,-0.274 -0.57,-0.164 -1.13,-0.91 c -0.73,-0.476 -2.05,-1.015 -3.14,0.285 l -0.81,0.957 -0.67,0.938 c -1.681,3.047 2.97,4.258 4.74,5.312 2.52,1.512 5.59,2.422 7.9,4.239 1.65,1.297 3.89,2.949 5.44,4.355 4.24,3.621 4.78,3.652 6.39,9.492 l 0.13,0.731 c 0.04,0.5 -0.06,0.801 -0.23,0.996 l -0.98,0.871 v 0" /><path
         id="path70"
         style="fill:#008378;fill-opacity:1;fill-rule:nonzero;stroke:none"
         d="m 959.738,481.313 -0.664,-0.313 -1.164,0.027 -3.316,0.215 -6.367,0.656 c -2.512,0.372 -10.872,3.165 -13.965,4.344 -5.492,2.121 -20.344,11.75 -23.879,16.856 l -0.813,1.144 -0.73,1.172 c -1.399,2.715 2.312,5.359 4.765,4.922 1.661,-0.313 4.258,-2.434 5.247,-3.535 2.742,-3.098 18.296,-12.492 21.914,-13.606 l 5.476,-1.855 c 7.852,-2.559 13.555,-2.363 21.719,-3.242 3.34,-0.36 7.773,-0.594 9.211,-0.711 l 1.363,-0.078 1.75,-0.246 c 1.028,-0.243 2.727,-0.965 2.278,-2.891 l -0.149,-1.121 -0.078,-1.074 c -0.273,-1.711 -2.078,-2.442 -3.566,-2.735 -1.485,-0.187 -1.043,-0.137 -2.02,-0.254 1.973,-3.008 -1.426,-5.859 -3.684,-6.308 -4.461,-0.899 -8.699,-2.981 -12.925,-4.629 -2.114,-0.821 -3.926,-1.574 -4.504,-2.012 -1.446,-1.074 -10.457,-6.758 -12.266,-7.844 -2.695,-1.785 -5.625,-4.004 -8.625,-5.312 -2.73,-1.192 -6.187,-2.43 -7.879,-2.695 -0.547,-0.086 -0.859,-0.274 -1.211,-0.586 l -0.652,-0.606 -0.941,-0.781 -0.782,-0.625 -0.847,-0.606 c -0.735,-0.379 -1.543,-0.449 -2.688,-0.254 l -1.473,0.313 c -3.546,0.988 -2.421,4.113 -0.585,6.223 l 0.71,0.742 9.348,5.722 c 1.317,0.079 4.387,0.352 5.418,0.958 1.43,0.839 8.742,5.75 10.883,7.07 5.269,3.222 13.609,7.09 19.598,9.012 0.273,0.089 0.41,0.156 0.71,0.546 l 1.614,2.395 -2.395,0.691 -2.605,0.539 -0.918,0.118 -0.313,0.254 v 0" /><path
         id="path72"
         style="fill:#008378;fill-opacity:1;fill-rule:nonzero;stroke:none"
         d="m 952.797,455.082 c 3.379,1.922 10.574,4.922 12.242,5.75 l 1.086,0.664 1.191,0.82 c 1.778,1.184 7.571,3.039 9.754,3.262 2.805,0.274 6.02,-2.871 3.879,-5.594 -3.679,-4.687 -8.601,-1.984 -13.894,-5.246 -1.567,-0.957 -16.489,-9.011 -17.805,-9.609 -1.316,-0.594 -14.094,-7.422 -14.57,-7.656 l -1.739,-0.723 c -0.753,-0.359 -1.347,-0.75 -1.601,-1.113 l -0.586,-0.996 -0.852,-1.278 c -2.195,-2.765 -7.871,-1.672 -8.765,1.61 -0.492,1.836 0.972,4.785 2.859,5.371 l 0.399,0.09 c 0,0 25.031,12.742 28.402,14.648 v 0" /><path
         id="path74"
         style="fill:#008378;fill-opacity:1;fill-rule:nonzero;stroke:none"
         d="m 705.305,466.254 c -1.067,-0.84 -0.364,-0.293 -1.875,-1.477 -0.95,-0.683 -2.344,-1.492 -3.535,-0.839 -1.844,1.007 -3.918,5.636 -1.418,6.281 l 6.308,4.511 1.645,2.899 c 0.918,1.574 2,3.371 2.476,3.996 l 2.817,4.258 c 1.199,1.855 2.507,3.855 3.113,4.531 l 0.625,0.918 0.676,1.219 0.73,1.262 c 0.266,0.378 0.598,0.781 1.016,1.054 l 1.816,1.258 c 2.852,1.633 5.879,-0.957 4.754,-4.062 l -1.707,-3.672 -0.879,-2.059 -0.344,-1.223 c 0,-1.621 -1.851,-8.144 -2.195,-9.168 l -1.047,-3.906 6.34,4.363 c 0,0 0.93,0.86 2.293,1.809 1.328,0.906 3.184,1.961 4.941,2.109 l 2.844,0.372 c 5.215,0.566 8.614,-1.321 8.946,-7.375 0.246,-4.364 0.449,-7.793 0.496,-10.262 l -0.078,-3.078 c -0.079,-0.743 -0.223,-1.512 -0.625,-2.02 -1.622,-2.453 -2.95,-4.297 -6.422,-4.074 -3.086,0.195 -7.082,0.117 -9.387,2.578 -4.063,4.309 -0.906,7.102 3.586,6.895 l 1.844,-0.118 h 1.375 c 1.086,0.137 1.679,0.676 1.796,3.028 0.071,1.476 0.208,4.922 -0.449,6.289 -1.531,-0.098 -6.972,-2.156 -9.07,-3.555 -2.031,-1.348 -7.715,-7.918 -8.469,-10.047 -0.828,-2.394 -4.644,-12.179 -5.371,-14.316 -0.711,-2.168 -3.621,-12.735 -4.695,-15.481 -0.703,-1.816 -4.485,-8.183 -7.41,-6.718 -2.446,1.211 -3.34,4.648 -0.969,11.671 2.375,7 5.82,18.543 5.945,19.129 0.606,2.551 2.336,8.547 2.61,11.321 l 0.656,4.179 -3.703,-2.48 v 0" /><path
         id="path76"
         style="fill:#008378;fill-opacity:1;fill-rule:nonzero;stroke:none"
         d="m 758.762,472.328 0.691,0.594 0.5,0.246 0.676,0.105 0.777,-0.156 0.598,-0.301 1.531,-0.832 c 3.117,-1.433 2.59,-5.789 -0.379,-6.796 l -1.426,-0.333 c -2.578,-0.359 -5.292,-0.085 -5.292,3.391 0,1.27 0.808,2.422 1.425,3.145 l 0.899,0.937 v 0" /><path
         id="path78"
         style="fill:#008378;fill-opacity:1;fill-rule:nonzero;stroke:none"
         d="m 1007.52,488.176 c 0.77,0.586 1.83,1.172 1.83,1.172 l 4.28,-0.899 1.88,-0.488 c 2.18,-0.606 11.39,-1.68 13.3,-1.531 3.42,0.222 11.19,0.515 14.83,1.629 l 1.9,0.617 c 0.62,0.164 1.26,0.262 2.12,0.262 l 0.79,-0.118 0.68,-0.39 0.42,-0.614 0.16,-0.625 -0.09,-1.066 -0.2,-0.801 c -0.28,-0.976 -1.67,-3.515 -2.63,-4.472 l -0.68,-0.743 -0.93,-0.945 c -1.19,-1.074 -2.55,-1.484 -3.88,-0.461 l -0.64,0.539 h -0.54 l -2.82,-0.547 -1.39,-0.246 -1.19,-0.047 -0.37,0.008 -0.78,-0.019 c -1.89,-0.086 -4.34,-0.469 -6.2,-0.106 -0.49,0.106 -2.79,0.195 -5.28,0.274 l -5.52,0.195 c -1.29,0.125 -7.45,2.109 -8.46,2.832 -1.83,1.309 -3.66,3.504 -1.72,5.594 l 1.13,0.996 v 0" /><path
         id="path80"
         style="fill:#008378;fill-opacity:1;fill-rule:nonzero;stroke:none"
         d="m 1035.58,519.035 0.49,0.195 0.51,0.227 1.53,-0.391 c 3.06,-0.929 3.75,-2.687 3.18,-5.793 -0.13,-0.722 -0.3,-1.277 -0.57,-1.855 l -0.98,-1.805 c -0.56,-0.957 -1.9,-7.519 -2.3,-8.886 -0.34,-1.211 -1.06,-2.278 -1.77,-3.176 l -1.99,-2.305 -2.03,-2.82 c -1.49,-2.141 -2.27,-4.016 -5.34,-3.184 -1.03,0.293 -2.11,0.809 -2.78,1.297 l -0.42,0.402 -0.25,0.516 -0.06,0.527 0.06,0.461 c 0.13,0.547 0.44,1.114 0.74,1.582 l 0.94,1.387 0.59,0.938 c 0.52,1.218 2.18,4.121 2.9,5.488 0.68,1.258 2.56,6.387 3.05,7.754 l 0.23,1.211 c 0.32,3.191 0.07,0.613 0.39,3.906 l 0.32,1.668 c 0.39,1.144 1.58,1.797 2.37,2.16 l 1.19,0.496 v 0" /><path
         id="path82"
         style="fill:#008378;fill-opacity:1;fill-rule:nonzero;stroke:none"
         d="m 421.262,180.355 h -43.633 v 19.012 h 43.633 v -19.012" /><path
         id="path84"
         style="fill:#008378;fill-opacity:1;fill-rule:nonzero;stroke:none"
         d="M 62.0703,161.469 H 61.582 L 31.3281,249.223 H 0 V 130.148 h 23.8867 v 81.457 l 0.4883,0.079 29.4336,-81.536 H 70 l 29.4453,81.368 0.4883,-0.067 V 130.148 H 123.809 V 249.223 H 92.6563 l -30.586,-87.754" /><path
         id="path86"
         style="fill:#008378;fill-opacity:1;fill-rule:nonzero;stroke:none"
         d="m 189.973,174.555 13.242,41.953 h 0.5 l 13.152,-41.953 z m 25.754,74.668 H 191.281 L 151.125,130.148 h 24.941 l 8.02,25.688 h 38.594 l 8.093,-25.688 h 24.942 l -39.988,119.075" /><path
         id="path88"
         style="fill:#008378;fill-opacity:1;fill-rule:nonzero;stroke:none"
         d="m 373.129,130.148 -37.375,60.032 35.332,59.043 h -27.805 l -22.32,-42.2 -22.004,42.2 H 271.32 L 306.645,190.18 270.41,130.148 h 27.895 l 22.976,42.942 22.981,-42.942 h 28.867" /><path
         id="path90"
         style="fill:#008378;fill-opacity:1;fill-rule:nonzero;stroke:none"
         d="m 510.305,197.172 c -3.426,-3.633 -8.477,-5.442 -15.125,-5.442 h -21.672 v 39.094 h 21.672 c 6.707,0 11.758,-1.875 15.164,-5.605 3.41,-3.731 5.117,-8.469 5.117,-14.192 0,-5.605 -1.719,-10.234 -5.156,-13.855 z m 17.168,41.582 c -7.84,6.98 -18.614,10.469 -32.293,10.469 H 449.621 V 130.148 h 23.887 v 43.188 h 21.672 c 13.679,0 24.453,3.457 32.293,10.379 7.851,6.922 11.777,16.082 11.777,27.48 0,11.395 -3.926,20.586 -11.777,27.559" /><path
         id="path92"
         style="fill:#008378;fill-opacity:1;fill-rule:nonzero;stroke:none"
         d="M 632.324,148.469 H 588.559 V 249.223 H 564.672 V 130.148 h 67.652 v 18.321" /><path
         id="path94"
         style="fill:#008378;fill-opacity:1;fill-rule:nonzero;stroke:none"
         d="m 686.184,174.555 13.254,41.953 h 0.488 l 13.164,-41.953 z m 1.308,74.668 -40.144,-119.075 h 24.929 l 8.02,25.688 h 38.601 l 8.094,-25.688 h 24.946 l -39.993,119.075 h -24.453" /><path
         id="path96"
         style="fill:#008378;fill-opacity:1;fill-rule:nonzero;stroke:none"
         d="m 800.664,210.383 0.488,0.07 48,-80.305 h 23.875 v 119.075 h -23.875 v -80.149 l -0.488,-0.074 -48,80.223 H 776.777 V 130.148 h 23.887 v 80.235" /><path
         id="path98"
         style="fill:#008378;fill-opacity:1;fill-rule:nonzero;stroke:none"
         d="m 986.242,240.305 c -8.183,7.09 -19.519,10.636 -34.023,10.636 -13.899,0 -25.137,-4.621 -33.692,-13.867 -8.562,-9.238 -12.839,-21.113 -12.839,-35.605 v -23.645 c 0,-14.551 4.382,-26.426 13.164,-35.613 8.777,-9.18 20.308,-13.781 34.586,-13.781 14.015,0 25,3.605 32.96,10.8 7.957,7.2 11.836,17.149 11.614,29.844 l -0.16,0.5 h -23.141 c 0,-7.746 -1.762,-13.488 -5.285,-17.219 -3.504,-3.738 -8.836,-5.605 -15.988,-5.605 -7.516,0 -13.399,2.891 -17.618,8.672 -4.226,5.773 -6.336,13.246 -6.336,22.402 v 23.809 c 0,9.094 2,16.523 6.004,22.277 4.016,5.75 9.582,8.633 16.731,8.633 7.683,0 13.371,-1.875 17.051,-5.605 3.679,-3.731 5.515,-9.415 5.515,-17.051 h 23.227 l 0.164,0.496 c 0.215,12.863 -3.762,22.844 -11.934,29.922" /><path
         id="path100"
         style="fill:#008378;fill-opacity:1;fill-rule:nonzero;stroke:none"
         d="m 1122.97,249.223 h -29.53 l -32.63,-48.653 h -6.7 v 48.653 h -23.88 V 130.148 h 23.88 v 49.727 h 8.75 l 32.87,-49.727 h 30.42 l -44.4,63.711 41.22,55.364" /><path
         id="path102"
         style="fill:#008378;fill-opacity:1;fill-rule:nonzero;stroke:none"
         d="M 1171.63,180.355 H 1128 v 19.012 h 43.63 v -19.012" /><path
         id="path104"
         style="fill:#008378;fill-opacity:1;fill-rule:nonzero;stroke:none"
         d="m 1225.58,129.945 h -24.47 v 118.778 h 24.47 V 129.945" /><path
         id="path106"
         style="fill:#008378;fill-opacity:1;fill-rule:nonzero;stroke:none"
         d="m 1357.37,129.945 h -24.48 l -47.63,78.153 v -78.153 h -24.48 v 118.778 h 24.48 l 47.72,-78.321 v 78.321 h 24.39 V 129.945" /><path
         id="path108"
         style="fill:#008378;fill-opacity:1;fill-rule:nonzero;stroke:none"
         d="m 1452.03,161.105 c 0,4.622 -1.63,8.176 -4.89,10.645 -3.26,2.48 -9.14,5.09 -17.63,7.836 -8.47,2.742 -15.19,5.445 -20.14,8.113 -13.49,7.285 -20.24,17.11 -20.24,29.453 0,6.414 1.81,12.141 5.43,17.168 3.62,5.028 8.81,8.965 15.58,11.785 6.78,2.833 14.37,4.25 22.8,4.25 8.49,0 16.05,-1.542 22.68,-4.609 6.64,-3.078 11.78,-7.41 15.46,-13.019 3.67,-5.594 5.5,-11.961 5.5,-19.082 h -24.47 c 0,5.441 -1.71,9.668 -5.14,12.687 -3.42,3.016 -8.24,4.52 -14.44,4.52 -5.98,0 -10.62,-1.258 -13.94,-3.789 -3.32,-2.528 -4.98,-5.86 -4.98,-9.989 0,-3.867 1.94,-7.101 5.84,-9.719 3.88,-2.605 9.6,-5.046 17.16,-7.332 13.93,-4.187 24.07,-9.386 30.43,-15.585 6.36,-6.204 9.54,-13.926 9.54,-23.165 0,-10.285 -3.88,-18.339 -11.66,-24.187 -7.78,-5.852 -18.25,-8.773 -31.4,-8.773 -9.14,0 -17.46,1.671 -24.97,5.023 -7.5,3.336 -13.23,7.918 -17.17,13.738 -3.95,5.821 -5.92,12.567 -5.92,20.235 h 24.56 c 0,-13.106 7.83,-19.661 23.5,-19.661 5.81,0 10.36,1.184 13.62,3.547 3.26,2.364 4.89,5.672 4.89,9.91" /><path
         id="path110"
         style="fill:#008378;fill-opacity:1;fill-rule:nonzero;stroke:none"
         d="m 1589.23,228.898 h -36.38 v -98.953 h -24.47 v 98.953 h -35.9 v 19.825 h 96.75 v -19.825" /><path
         id="path112"
         style="fill:#008378;fill-opacity:1;fill-rule:nonzero;stroke:none"
         d="m 1637.56,129.945 h -24.47 v 118.778 h 24.47 V 129.945" /><path
         id="path114"
         style="fill:#008378;fill-opacity:1;fill-rule:nonzero;stroke:none"
         d="m 1755.64,228.898 h -36.38 v -98.953 h -24.47 v 98.953 h -35.9 v 19.825 h 96.75 v -19.825" /><path
         id="path116"
         style="fill:#008378;fill-opacity:1;fill-rule:nonzero;stroke:none"
         d="m 1867.84,248.723 v -78.231 c 0,-13 -4.07,-23.281 -12.19,-30.84 -8.14,-7.558 -19.24,-11.339 -33.33,-11.339 -13.87,0 -24.89,3.671 -33.04,11.015 -8.16,7.336 -12.32,17.422 -12.48,30.266 v 79.129 h 24.47 v -78.399 c 0,-7.773 1.87,-13.445 5.59,-17.011 3.73,-3.563 8.87,-5.34 15.46,-5.34 13.76,0 20.75,7.238 20.96,21.699 v 79.051 h 24.56" /><path
         id="path118"
         style="fill:#008378;fill-opacity:1;fill-rule:nonzero;stroke:none"
         d="m 1985.68,228.898 h -36.38 v -98.953 h -24.47 v 98.953 h -35.9 v 19.825 h 96.75 v -19.825" /><path
         id="path120"
         style="fill:#008378;fill-opacity:1;fill-rule:nonzero;stroke:none"
         d="m 1275.92,43.4414 h -42.07 V 1.23828 h -7.63 V 91.4609 h 55.9 v -6.4492 h -48.27 v -35.125 h 42.07 v -6.4453" /><path
         id="path122"
         style="fill:#008378;fill-opacity:1;fill-rule:nonzero;stroke:none"
         d="m 1345.96,107.199 c 0,1.406 0.46,2.59 1.37,3.567 0.9,0.964 2.14,1.453 3.72,1.453 1.56,0 2.81,-0.489 3.74,-1.453 0.93,-0.977 1.39,-2.161 1.39,-3.567 0,-1.363 -0.46,-2.519 -1.39,-3.465 -0.93,-0.957 -2.18,-1.425 -3.74,-1.425 -1.58,0 -2.82,0.468 -3.72,1.425 -0.91,0.946 -1.37,2.102 -1.37,3.465 z m -27.14,0.059 c 0,1.41 0.46,2.597 1.37,3.566 0.91,0.969 2.15,1.453 3.71,1.453 1.57,0 2.82,-0.484 3.75,-1.453 0.93,-0.969 1.39,-2.156 1.39,-3.566 0,-1.356 -0.46,-2.52 -1.39,-3.465 -0.93,-0.949 -2.18,-1.426 -3.75,-1.426 -1.56,0 -2.8,0.477 -3.71,1.426 -0.91,0.945 -1.37,2.109 -1.37,3.465 z m 49.82,-15.7971 V 29.8711 c -0.04,-6.0703 -1.38,-11.3594 -4.03,-15.8594 -2.65,-4.49998 -6.37,-7.96092 -11.18,-10.38279 C 1348.62,1.21094 1343.09,0 1336.86,0 c -9.5,0 -17.12,2.58984 -22.84,7.78125 -5.73,5.17965 -8.69,12.35935 -8.89,21.52735 v 62.1523 h 7.56 v -61.039 c 0,-7.5938 2.17,-13.4922 6.5,-17.6836 4.34,-4.18752 10.23,-6.28908 17.67,-6.28908 7.43,0 13.31,2.10937 17.62,6.32028 4.32,4.2188 6.48,10.0821 6.48,17.5899 v 61.1015 h 7.68" /><path
         id="path124"
         style="fill:#008378;fill-opacity:1;fill-rule:nonzero;stroke:none"
         d="m 1406.26,45.2969 h 23.36 c 6.41,0 11.55,1.8281 15.43,5.4687 3.89,3.6328 5.83,8.3477 5.83,14.1407 0,6.375 -2.03,11.3164 -6.07,14.832 -4.06,3.5156 -9.73,5.2734 -17.04,5.2734 h -21.51 z m 26.21,-6.4453 h -26.21 V 1.23828 h -7.68 V 91.4609 h 29.31 c 9.62,0 17.14,-2.3281 22.55,-6.9961 5.41,-4.6562 8.12,-11.1796 8.12,-19.5585 0,-5.7735 -1.69,-10.8711 -5.08,-15.2813 -3.39,-4.4141 -7.93,-7.4727 -13.63,-9.1641 L 1462.4,2.05078 v -0.8125 h -8.11 l -21.82,37.61332" /><path
         id="path126"
         style="fill:#008378;fill-opacity:1;fill-rule:nonzero;stroke:none"
         d="m 1535.57,44.4258 h 23.11 c 7.4,0 13.03,1.7695 16.92,5.2851 3.87,3.5157 5.82,8.418 5.82,14.7071 0,6.2383 -1.94,11.2187 -5.79,14.9218 -3.87,3.7032 -9.35,5.5938 -16.46,5.6719 h -23.6 z m 0,-6.4375 V 1.23828 h -7.63 V 91.4609 h 30.74 c 9.38,0 16.78,-2.3945 22.21,-7.1914 5.43,-4.7851 8.15,-11.375 8.15,-19.7656 0,-8.4648 -2.61,-15 -7.84,-19.6094 -5.22,-4.6054 -12.79,-6.9062 -22.7,-6.9062 h -22.93" /><path
         id="path128"
         style="fill:#008378;fill-opacity:1;fill-rule:nonzero;stroke:none"
         d="m 1681.83,1.23828 h -7.69 V 44.4961 h -51.55 V 1.23828 h -7.63 V 91.4609 h 7.63 V 50.9414 h 51.55 v 40.5195 h 7.69 V 1.23828" /><path
         id="path130"
         style="fill:#008378;fill-opacity:1;fill-rule:nonzero;stroke:none"
         d="m 1738.36,42.2578 27.57,49.2031 h 8.8 L 1742.14,35.1992 V 1.23828 h -7.63 V 35.1992 l -32.53,56.2617 h 9.06 l 27.32,-49.2031" /><path
         id="path132"
         style="fill:#008378;fill-opacity:1;fill-rule:nonzero;stroke:none"
         d="m 1846.82,23.4297 c 0,4.9922 -1.76,8.9492 -5.28,11.8711 -3.5,2.9101 -9.93,5.668 -19.26,8.2969 -9.34,2.6171 -16.16,5.4765 -20.45,8.582 -6.12,4.375 -9.17,10.1172 -9.17,17.2266 0,6.8945 2.84,12.5 8.52,16.8164 5.68,4.3203 12.94,6.4765 21.78,6.4765 5.99,0 11.35,-1.1523 16.08,-3.4687 4.73,-2.3125 8.39,-5.5352 11,-9.668 2.6,-4.1289 3.9,-8.7383 3.9,-13.8164 h -7.68 c 0,6.1719 -2.11,11.1328 -6.33,14.8828 -4.21,3.75 -9.87,5.625 -16.97,5.625 -6.9,0 -12.39,-1.5351 -16.48,-4.6211 -4.1,-3.0859 -6.14,-7.1094 -6.14,-12.0703 0,-4.5898 1.84,-8.3398 5.52,-11.2266 3.67,-2.9023 9.56,-5.4609 17.66,-7.6679 8.09,-2.2188 14.23,-4.5117 18.41,-6.8867 4.17,-2.3711 7.3,-5.211 9.41,-8.5196 2.11,-3.3008 3.16,-7.2109 3.16,-11.7109 0,-7.1016 -2.84,-12.8008 -8.52,-17.10158 C 1840.29,2.14844 1832.81,0 1823.52,0 c -6.36,0 -12.2,1.14063 -17.5,3.41016 -5.32,2.28125 -9.34,5.44922 -12.09,9.53904 -2.75,4.0899 -4.12,8.7813 -4.12,14.0703 h 7.62 c 0,-6.3593 2.38,-11.3789 7.12,-15.0507 4.76,-3.68755 11.08,-5.51958 18.97,-5.51958 7.02,0 12.66,1.55078 16.91,4.65238 4.26,3.0898 6.39,7.1992 6.39,12.3281" /><path
         id="path134"
         style="fill:#008378;fill-opacity:1;fill-rule:nonzero;stroke:none"
         d="m 1889.09,1.23828 h -7.61 V 91.4609 h 7.61 V 1.23828" /><path
         id="path136"
         style="fill:#008378;fill-opacity:1;fill-rule:nonzero;stroke:none"
         d="M 1942.79,46.0391 1930.08,33.5313 V 1.23828 h -7.63 V 91.4609 h 7.63 V 42.8164 l 46.22,48.6445 h 9.61 l -37.8,-40.1484 40.71,-50.07422 h -9.3 l -36.73,44.80082" /></g></g></svg>